<?xml version="1.0" encoding="UTF-8"?>
<svg id="Layer_2" data-name="Layer 2" xmlns="http://www.w3.org/2000/svg" viewBox="0 0 404.45 160.52">
  <defs>
    <style>
      .cls-1 {
        fill: #5e5a59;
      }

      .cls-2 {
        fill: #f17c21;
      }
    </style>
  </defs>
  <g id="Layer_1-2" data-name="Layer 1">
    <g>
      <path class="cls-2" d="M218.21,105.3c-24.9,0-39.78-19.51-39.78-38.38s12.29-41.04,39.27-41.04c11.08,0,20.1,3.45,26.79,10.26,12.5,12.71,12.31,32.45,12.29,33.29l-.04,2.46h-65.18c1.62,6.51,7.28,20.46,26.05,20.46,16.9,0,23.81-14.58,23.88-14.73l1.27-2.82,10.12,7.47-1.07,1.92c-7.57,13.62-19.5,21.12-33.61,21.12ZM243.61,59.46c-2-6.83-8.21-21.45-24.59-21.45-20.06,0-25.86,14.39-27.47,21.03l52.06.42Z"/>
      <path class="cls-2" d="M53.27,105.3c-24.9,0-39.78-19.51-39.78-38.38S25.78,25.88,52.76,25.88c11.08,0,20.1,3.45,26.79,10.26,12.49,12.71,12.31,32.45,12.29,33.29l-.04,2.46H26.62c1.62,6.51,7.28,20.46,26.05,20.46,16.9,0,23.82-14.58,23.88-14.73l1.27-2.82,10.12,7.47-1.07,1.92c-7.57,13.62-19.5,21.12-33.61,21.12ZM78.67,59.46c-2-6.83-8.21-21.45-24.59-21.45-20.06,0-25.86,14.39-27.47,21.03l52.06.42Z"/>
      <path class="cls-2" d="M134.9,105.3c-11.82,0-21.19-3.52-27.87-10.45-11.06-11.49-10.54-28.03-10.51-28.73l.09-2.4h11.5l.1,2.39c.8,18.68,8.88,27.02,26.22,27.02,18.42,0,27.38-6.05,27.38-18.49,0-10.33-11.57-13.29-23.82-16.42-2.24-.57-4.55-1.16-6.73-1.8-2.02-.59-4.03-1.09-5.97-1.58-11.36-2.85-22.08-5.54-22.08-22.51,0-23.31,25.67-25.12,33.54-25.12,10.14,0,18.03,2.97,23.47,8.83,8.6,9.26,7.73,22.21,7.69,22.76l-.17,2.31h-11.28l-.11-2.38c-.62-13.48-7.59-19.76-21.93-19.76-7.45,0-19.28,3.62-19.28,13.32,0,7.87,7.51,9.8,19.76,12.31l2.26.47c11,2.29,36.57,9.61,36.57,28.05,0,14.69-6.74,32.19-38.85,32.19Z"/>
      <path class="cls-1" d="M324.79,0c-35.16,0-63.67,28.69-63.67,64.09s28.51,64.09,63.67,64.09,63.67-28.69,63.67-64.09S359.96,0,324.79,0ZM318.33,120.55c-30.93,0-56.01-25.28-56.01-56.46s25.08-56.46,56.01-56.46,56.01,25.28,56.01,56.46-25.08,56.46-56.01,56.46Z"/>
      <path class="cls-2" d="M302.12,105.62c-24.9,0-39.78-19.51-39.78-38.38s12.3-41.08,39.31-41.08c18.75,0,27.19,10.2,34.23,20.65l1.55,2.3-11.12,5.91-1.18-2.2c-3.55-6.64-10.29-14.55-22.19-14.55-25.32,0-27.89,22.84-27.99,23.81l-.03.18c-.72,3.54-.03,6.82-.02,6.85l.02.1c1.69,11.31,9.57,23.4,26.63,23.4h1.71c15.58-.9,22.06-14.55,22.12-14.68l1.17-2.59,10.69,6.61-1.16,2.09c-7.63,13.71-20.01,21.57-33.98,21.57Z"/>
      <path class="cls-1" d="M295.41,81.93v-17.71c-1.82-1.24-2.93-3.33-2.93-5.59,0-3.71,3-6.72,6.68-6.72s6.68,3.01,6.68,6.72c0,2.47-1.31,4.71-3.4,5.89v17.41h-7.03Z"/>
      <g>
        <path class="cls-1" d="M5.49,143.77c-.7,0-1.28.14-1.73.43-.45.29-.68.72-.68,1.3s.23,1.02.68,1.33c.45.31,1.41.64,2.87.99,1.47.36,2.57.85,3.31,1.49.74.64,1.11,1.59,1.11,2.83s-.47,2.26-1.41,3.04c-.94.78-2.18,1.17-3.7,1.17-2.24,0-4.22-.77-5.95-2.31l1.51-1.82c1.45,1.25,2.95,1.88,4.5,1.88.78,0,1.39-.17,1.85-.5.46-.33.68-.78.68-1.33s-.21-.98-.64-1.29c-.43-.31-1.17-.59-2.22-.84-1.05-.25-1.85-.48-2.39-.7-.55-.21-1.03-.49-1.45-.83-.85-.64-1.27-1.62-1.27-2.95s.48-2.34,1.44-3.06c.96-.72,2.15-1.07,3.57-1.07.91,0,1.82.15,2.72.45.9.3,1.68.72,2.33,1.27l-1.29,1.82c-.42-.38-1-.7-1.72-.94s-1.44-.37-2.14-.37Z"/>
        <path class="cls-1" d="M23.86,151.75h-8.53c.05.79.42,1.43,1.08,1.91.67.48,1.43.73,2.29.73,1.36,0,2.4-.43,3.11-1.29l1.31,1.43c-1.17,1.21-2.7,1.82-4.58,1.82-1.53,0-2.83-.51-3.9-1.52-1.07-1.02-1.61-2.38-1.61-4.09s.55-3.07,1.64-4.08c1.09-1.01,2.38-1.51,3.86-1.51s2.74.45,3.78,1.34c1.04.89,1.55,2.12,1.55,3.69v1.58ZM15.32,149.95h6.24c0-.91-.29-1.62-.86-2.11-.57-.49-1.28-.74-2.12-.74s-1.59.26-2.26.77c-.67.51-1,1.2-1,2.08Z"/>
        <path class="cls-1" d="M31.2,156.35c-1.51,0-2.82-.51-3.91-1.54-1.09-1.03-1.64-2.38-1.64-4.04s.57-3.02,1.71-4.06c1.14-1.04,2.53-1.57,4.16-1.57s3.02.57,4.15,1.7l-1.35,1.66c-.94-.82-1.89-1.23-2.84-1.23s-1.78.32-2.49.95c-.7.63-1.05,1.45-1.05,2.46s.35,1.85,1.04,2.55c.7.7,1.55,1.04,2.57,1.04s1.97-.46,2.87-1.39l1.35,1.47c-1.32,1.34-2.85,2.01-4.58,2.01Z"/>
        <path class="cls-1" d="M45.77,151.19v-5.89h2.29v10.88h-2.29v-1.98c-.37.67-.88,1.19-1.52,1.58s-1.35.57-2.1.57c-1.23,0-2.22-.38-2.98-1.13-.76-.75-1.14-1.83-1.14-3.25v-6.67h2.29v5.97c0,2,.83,3.01,2.5,3.01.79,0,1.48-.26,2.07-.79.59-.53.88-1.29.88-2.3Z"/>
        <path class="cls-1" d="M57.08,147.45c-1.13,0-1.98.37-2.56,1.1-.57.74-.86,1.73-.86,2.97v4.66h-2.29v-10.88h2.29v2.19c.37-.68.87-1.24,1.5-1.68.63-.44,1.31-.66,2.02-.68l.02,2.31h-.12Z"/>
        <path class="cls-1" d="M59.64,143.13c-.29-.29-.43-.63-.43-1.02s.14-.74.43-1.02.63-.43,1.02-.43.74.14,1.02.43c.29.29.43.63.43,1.02s-.14.74-.43,1.02c-.29.29-.63.43-1.02.43s-.74-.14-1.02-.43ZM61.79,156.19h-2.29v-10.88h2.29v10.88Z"/>
        <path class="cls-1" d="M67.92,147.14v5.52c0,.52.14.93.41,1.24.27.31.65.46,1.15.46s.96-.24,1.41-.72l.94,1.62c-.81.72-1.7,1.08-2.67,1.08s-1.81-.34-2.5-1.01c-.69-.68-1.03-1.59-1.03-2.73v-5.46h-1.37v-1.84h1.37v-3.42h2.29v3.42h2.86v1.84h-2.86Z"/>
        <path class="cls-1" d="M75.02,160.52c-1,0-1.9-.36-2.7-1.08l1.04-1.86c.48.45.97.68,1.48.68s.93-.18,1.25-.55c.32-.37.48-.77.48-1.21,0-.19-1.47-3.92-4.4-11.19h2.46l3.25,8.02,3.25-8.02h2.46l-5.28,12.93c-.31.71-.76,1.27-1.35,1.68-.59.41-1.23.61-1.94.61Z"/>
        <path class="cls-1" d="M91.12,159.32v-19.13h1.7v19.13h-1.7Z"/>
        <path class="cls-1" d="M104.22,152.93l-1.43,3.25h-2.58l6.3-14.3h2.58l6.3,14.3h-2.58l-1.43-3.25h-7.16ZM110.4,150.7l-2.6-5.89-2.6,5.89h5.2Z"/>
        <path class="cls-1" d="M124.49,151.19v-5.89h2.29v10.88h-2.29v-1.98c-.37.67-.88,1.19-1.52,1.58s-1.35.57-2.1.57c-1.23,0-2.22-.38-2.98-1.13-.76-.75-1.14-1.83-1.14-3.25v-6.67h2.29v5.97c0,2,.83,3.01,2.5,3.01.79,0,1.48-.26,2.07-.79.59-.53.88-1.29.88-2.3Z"/>
        <path class="cls-1" d="M132.92,147.14v5.52c0,.52.14.93.41,1.24.27.31.65.46,1.15.46s.96-.24,1.41-.72l.94,1.62c-.81.72-1.7,1.08-2.67,1.08s-1.81-.34-2.5-1.01c-.69-.68-1.03-1.59-1.03-2.73v-5.46h-1.37v-1.84h1.37v-3.42h2.29v3.42h2.86v1.84h-2.86Z"/>
        <path class="cls-1" d="M147.67,154.72c-1.09,1.08-2.46,1.63-4.09,1.63s-3-.54-4.09-1.63c-1.09-1.08-1.64-2.41-1.64-3.98s.54-2.89,1.64-3.98c1.09-1.08,2.46-1.63,4.09-1.63s3,.54,4.09,1.63c1.09,1.08,1.64,2.41,1.64,3.98s-.55,2.89-1.64,3.98ZM141.12,153.31c.65.66,1.47.99,2.47.99s1.82-.33,2.47-.99c.65-.66.97-1.52.97-2.57s-.32-1.91-.97-2.57c-.65-.66-1.47-.99-2.47-.99s-1.82.33-2.47.99c-.65.66-.97,1.52-.97,2.57s.32,1.91.97,2.57Z"/>
        <path class="cls-1" d="M154.2,150.29v5.89h-2.29v-10.88h2.29v1.98c.33-.67.82-1.19,1.48-1.58.66-.38,1.37-.57,2.14-.57,1.72,0,2.88.71,3.5,2.13,1.08-1.42,2.42-2.13,4.03-2.13,1.23,0,2.22.38,2.98,1.13.76.75,1.14,1.83,1.14,3.25v6.67h-2.29v-5.97c0-2-.83-3.01-2.5-3.01-.78,0-1.46.25-2.04.75-.58.5-.88,1.22-.91,2.18v6.06h-2.29v-5.97c0-1.04-.18-1.8-.55-2.28-.37-.48-.95-.73-1.74-.73s-1.48.26-2.07.79c-.59.53-.88,1.29-.88,2.3Z"/>
        <path class="cls-1" d="M181.47,156.19h-2.09v-1.45c-.9,1.08-2.11,1.62-3.62,1.62-1.13,0-2.07-.32-2.81-.96-.74-.64-1.11-1.5-1.11-2.57s.4-1.87,1.19-2.4c.79-.53,1.86-.8,3.21-.8h2.97v-.41c0-1.45-.8-2.17-2.41-2.17-1.01,0-2.06.37-3.15,1.1l-1.02-1.43c1.32-1.05,2.82-1.58,4.5-1.58,1.28,0,2.33.32,3.14.97.81.65,1.22,1.67,1.22,3.06v7.02ZM179.18,152.14v-.92h-2.58c-1.65,0-2.48.52-2.48,1.55,0,.53.2.94.61,1.22.41.28.98.42,1.71.42s1.37-.2,1.91-.61.82-.96.82-1.66Z"/>
        <path class="cls-1" d="M187.36,147.14v5.52c0,.52.14.93.41,1.24.27.31.65.46,1.15.46s.96-.24,1.41-.72l.94,1.62c-.81.72-1.7,1.08-2.67,1.08s-1.81-.34-2.5-1.01c-.69-.68-1.03-1.59-1.03-2.73v-5.46h-1.37v-1.84h1.37v-3.42h2.29v3.42h2.86v1.84h-2.86Z"/>
        <path class="cls-1" d="M193.23,143.13c-.29-.29-.43-.63-.43-1.02s.14-.74.43-1.02.63-.43,1.02-.43.74.14,1.02.43c.29.29.43.63.43,1.02s-.14.74-.43,1.02c-.29.29-.63.43-1.02.43s-.74-.14-1.02-.43ZM195.38,156.19h-2.29v-10.88h2.29v10.88Z"/>
        <path class="cls-1" d="M207.8,154.72c-1.09,1.08-2.46,1.63-4.09,1.63s-3-.54-4.09-1.63c-1.09-1.08-1.64-2.41-1.64-3.98s.54-2.89,1.64-3.98c1.09-1.08,2.46-1.63,4.09-1.63s3,.54,4.09,1.63c1.09,1.08,1.64,2.41,1.64,3.98s-.55,2.89-1.64,3.98ZM201.24,153.31c.65.66,1.47.99,2.47.99s1.82-.33,2.47-.99c.65-.66.97-1.52.97-2.57s-.32-1.91-.97-2.57c-.65-.66-1.47-.99-2.47-.99s-1.82.33-2.47.99c-.65.66-.97,1.52-.97,2.57s.32,1.91.97,2.57Z"/>
        <path class="cls-1" d="M214.33,150.29v5.89h-2.29v-10.88h2.29v1.98c.37-.67.88-1.19,1.52-1.58.65-.38,1.35-.57,2.1-.57,1.23,0,2.22.38,2.98,1.13.76.75,1.14,1.83,1.14,3.25v6.67h-2.29v-5.97c0-2-.83-3.01-2.5-3.01-.79,0-1.48.26-2.07.79-.59.53-.88,1.29-.88,2.3Z"/>
        <path class="cls-1" d="M230.98,159.32v-19.13h1.7v19.13h-1.7Z"/>
        <path class="cls-1" d="M248.58,154c.83,0,1.55-.14,2.15-.42.6-.28,1.23-.73,1.88-1.34l1.56,1.6c-1.51,1.68-3.35,2.52-5.51,2.52s-3.96-.7-5.38-2.09c-1.43-1.39-2.14-3.15-2.14-5.28s.73-3.9,2.18-5.32,3.29-2.13,5.5-2.13,4.07.82,5.55,2.46l-1.53,1.68c-.68-.65-1.33-1.11-1.93-1.37-.61-.26-1.32-.39-2.14-.39-1.45,0-2.66.47-3.64,1.4-.98.93-1.47,2.13-1.47,3.58s.49,2.67,1.46,3.64c.97.98,2.13,1.46,3.47,1.46Z"/>
        <path class="cls-1" d="M265.58,154.72c-1.09,1.08-2.46,1.63-4.09,1.63s-3-.54-4.09-1.63c-1.09-1.08-1.64-2.41-1.64-3.98s.54-2.89,1.64-3.98c1.09-1.08,2.46-1.63,4.09-1.63s3,.54,4.09,1.63c1.09,1.08,1.64,2.41,1.64,3.98s-.55,2.89-1.64,3.98ZM259.02,153.31c.65.66,1.47.99,2.47.99s1.82-.33,2.47-.99c.65-.66.97-1.52.97-2.57s-.32-1.91-.97-2.57c-.65-.66-1.47-.99-2.47-.99s-1.82.33-2.47.99c-.65.66-.97,1.52-.97,2.57s.32,1.91.97,2.57Z"/>
        <path class="cls-1" d="M272.1,150.29v5.89h-2.29v-10.88h2.29v1.98c.33-.67.82-1.19,1.48-1.58.66-.38,1.37-.57,2.14-.57,1.72,0,2.88.71,3.5,2.13,1.08-1.42,2.42-2.13,4.03-2.13,1.23,0,2.22.38,2.98,1.13.76.75,1.14,1.83,1.14,3.25v6.67h-2.29v-5.97c0-2-.83-3.01-2.5-3.01-.78,0-1.46.25-2.04.75-.58.5-.88,1.22-.91,2.18v6.06h-2.29v-5.97c0-1.04-.18-1.8-.55-2.28-.37-.48-.95-.73-1.74-.73s-1.48.26-2.07.79c-.59.53-.88,1.29-.88,2.3Z"/>
        <path class="cls-1" d="M292.85,150.29v5.89h-2.29v-10.88h2.29v1.98c.33-.67.82-1.19,1.48-1.58.66-.38,1.37-.57,2.14-.57,1.72,0,2.88.71,3.5,2.13,1.08-1.42,2.42-2.13,4.03-2.13,1.23,0,2.22.38,2.98,1.13.76.75,1.14,1.83,1.14,3.25v6.67h-2.29v-5.97c0-2-.83-3.01-2.5-3.01-.78,0-1.46.25-2.04.75-.58.5-.88,1.22-.91,2.18v6.06h-2.29v-5.97c0-1.04-.18-1.8-.55-2.28-.37-.48-.95-.73-1.74-.73s-1.48.26-2.07.79c-.59.53-.88,1.29-.88,2.3Z"/>
        <path class="cls-1" d="M318.91,151.19v-5.89h2.29v10.88h-2.29v-1.98c-.37.67-.88,1.19-1.52,1.58s-1.35.57-2.1.57c-1.23,0-2.22-.38-2.98-1.13-.76-.75-1.14-1.83-1.14-3.25v-6.67h2.29v5.97c0,2,.83,3.01,2.5,3.01.79,0,1.48-.26,2.07-.79.59-.53.88-1.29.88-2.3Z"/>
        <path class="cls-1" d="M326.81,150.29v5.89h-2.29v-10.88h2.29v1.98c.37-.67.88-1.19,1.52-1.58.65-.38,1.35-.57,2.1-.57,1.23,0,2.22.38,2.98,1.13.76.75,1.14,1.83,1.14,3.25v6.67h-2.29v-5.97c0-2-.83-3.01-2.5-3.01-.79,0-1.48.26-2.07.79-.59.53-.88,1.29-.88,2.3Z"/>
        <path class="cls-1" d="M337.88,143.13c-.29-.29-.43-.63-.43-1.02s.14-.74.43-1.02.63-.43,1.02-.43.74.14,1.02.43c.29.29.43.63.43,1.02s-.14.74-.43,1.02c-.29.29-.63.43-1.02.43s-.74-.14-1.02-.43ZM340.03,156.19h-2.29v-10.88h2.29v10.88Z"/>
        <path class="cls-1" d="M348.17,156.35c-1.51,0-2.82-.51-3.91-1.54-1.09-1.03-1.64-2.38-1.64-4.04s.57-3.02,1.71-4.06c1.14-1.04,2.53-1.57,4.16-1.57s3.02.57,4.15,1.7l-1.35,1.66c-.94-.82-1.89-1.23-2.84-1.23s-1.78.32-2.49.95c-.7.63-1.05,1.45-1.05,2.46s.35,1.85,1.04,2.55c.7.7,1.55,1.04,2.57,1.04s1.97-.46,2.87-1.39l1.35,1.47c-1.32,1.34-2.85,2.01-4.58,2.01Z"/>
        <path class="cls-1" d="M363.86,156.19h-2.09v-1.45c-.9,1.08-2.11,1.62-3.62,1.62-1.13,0-2.07-.32-2.81-.96-.74-.64-1.11-1.5-1.11-2.57s.4-1.87,1.19-2.4c.79-.53,1.86-.8,3.21-.8h2.97v-.41c0-1.45-.8-2.17-2.41-2.17-1.01,0-2.06.37-3.15,1.1l-1.02-1.43c1.32-1.05,2.82-1.58,4.5-1.58,1.28,0,2.33.32,3.14.97.81.65,1.22,1.67,1.22,3.06v7.02ZM361.57,152.14v-.92h-2.58c-1.65,0-2.48.52-2.48,1.55,0,.53.2.94.61,1.22.41.28.98.42,1.71.42s1.37-.2,1.91-.61.82-.96.82-1.66Z"/>
        <path class="cls-1" d="M369.75,147.14v5.52c0,.52.14.93.41,1.24.27.31.65.46,1.15.46s.96-.24,1.41-.72l.94,1.62c-.81.72-1.7,1.08-2.67,1.08s-1.81-.34-2.5-1.01c-.69-.68-1.03-1.59-1.03-2.73v-5.46h-1.37v-1.84h1.37v-3.42h2.29v3.42h2.86v1.84h-2.86Z"/>
        <path class="cls-1" d="M375.63,143.13c-.29-.29-.43-.63-.43-1.02s.14-.74.43-1.02.63-.43,1.02-.43.74.14,1.02.43c.29.29.43.63.43,1.02s-.14.74-.43,1.02c-.29.29-.63.43-1.02.43s-.74-.14-1.02-.43ZM377.77,156.19h-2.29v-10.88h2.29v10.88Z"/>
        <path class="cls-1" d="M390.19,154.72c-1.09,1.08-2.46,1.63-4.09,1.63s-3-.54-4.09-1.63c-1.09-1.08-1.64-2.41-1.64-3.98s.54-2.89,1.64-3.98c1.09-1.08,2.46-1.63,4.09-1.63s3,.54,4.09,1.63c1.09,1.08,1.64,2.41,1.64,3.98s-.55,2.89-1.64,3.98ZM383.64,153.31c.65.66,1.47.99,2.47.99s1.82-.33,2.47-.99c.65-.66.97-1.52.97-2.57s-.32-1.91-.97-2.57c-.65-.66-1.47-.99-2.47-.99s-1.82.33-2.47.99c-.65.66-.97,1.52-.97,2.57s.32,1.91.97,2.57Z"/>
        <path class="cls-1" d="M396.72,150.29v5.89h-2.29v-10.88h2.29v1.98c.37-.67.88-1.19,1.52-1.58.65-.38,1.35-.57,2.1-.57,1.23,0,2.22.38,2.98,1.13.76.75,1.14,1.83,1.14,3.25v6.67h-2.29v-5.97c0-2-.83-3.01-2.5-3.01-.79,0-1.48.26-2.07.79-.59.53-.88,1.29-.88,2.3Z"/>
      </g>
    </g>
  </g>
</svg>