<?xml version="1.0" standalone="no"?>
<!DOCTYPE svg PUBLIC "-//W3C//DTD SVG 20010904//EN"
 "http://www.w3.org/TR/2001/REC-SVG-20010904/DTD/svg10.dtd">
<svg version="1.0" xmlns="http://www.w3.org/2000/svg"
 width="382.000000pt" height="158.000000pt" viewBox="0 0 382.000000 158.000000"
 preserveAspectRatio="xMidYMid meet">

<g transform="translate(0.000000,158.000000) scale(0.100000,-0.100000)"
fill="#000000" stroke="none">
<path d="M3005 1551 c-138 -39 -292 -156 -364 -275 -43 -72 -79 -170 -86 -238
l-5 -53 15 65 c48 210 211 381 415 435 30 8 91 15 135 15 268 0 493 -188 551
-460 56 -267 -108 -547 -376 -641 -98 -35 -258 -33 -357 3 -194 70 -339 242
-372 441 -6 36 -9 43 -10 22 0 -17 6 -58 14 -90 56 -223 245 -408 470 -461
102 -23 256 -15 353 19 182 64 324 206 390 389 34 95 42 271 18 369 -56 222
-237 406 -456 464 -77 21 -258 18 -335 -4z"/>
<path d="M2890 1050 c-24 -24 -26 -59 -5 -86 10 -13 14 -45 15 -106 l0 -88 35
0 35 0 0 89 c0 66 4 92 15 101 38 31 2 110 -50 110 -14 0 -34 -9 -45 -20z"/>
</g>
</svg>
